<?xml version="1.0" encoding="UTF-8"?>
<!DOCTYPE svg PUBLIC "-//W3C//DTD SVG 1.1//EN" "http://www.w3.org/Graphics/SVG/1.1/DTD/svg11.dtd">
<!-- Creator: CorelDRAW -->
<svg xmlns="http://www.w3.org/2000/svg" xml:space="preserve" width="225px" height="161px" version="1.1" style="shape-rendering:geometricPrecision; text-rendering:geometricPrecision; image-rendering:optimizeQuality; fill-rule:evenodd; clip-rule:evenodd"
viewBox="0 0 21.94 15.71"
 xmlns:xlink="http://www.w3.org/1999/xlink"
 xmlns:xodm="http://www.corel.com/coreldraw/odm/2003">
 <defs>
  <style type="text/css">
   <![CDATA[
    .fil3 {fill:#0E8F75}
    .fil0 {fill:#0E8F75}
    .fil2 {fill:#1BBC9B}
    .fil1 {fill:white}
   ]]>
  </style>
 </defs>
 <g id="Camada_x0020_1">
  <metadata id="CorelCorpID_0Corel-Layer"/>
  <g id="_1508550628944">
   <ellipse class="fil0" cx="10.99" cy="7.86" rx="7.87" ry="7.86"/>
   <ellipse class="fil1" cx="10.99" cy="7.87" rx="6.88" ry="4.15"/>
   <path class="fil2" d="M21.46 6.24c0,-1.05 -0.07,-2.17 -0.07,-3.15 -0.01,-1.09 -0.08,-0.67 0.35,-1.37 0.6,-0.98 -0.28,-1.64 -1.33,-1.01 -0.23,1.09 -0.05,0.66 0.26,1.29 0.24,0.47 0.19,2.46 0.15,3.54 -0.54,-0.47 -1.25,-0.86 -2.08,-1.12 0.49,1.03 0.77,2.17 0.77,3.38 0,1.14 -0.25,2.23 -0.69,3.21 1.86,-0.61 3.12,-1.85 3.12,-3.28 0,-0.53 -0.17,-1.04 -0.48,-1.49z"/>
   <path class="fil3" d="M7.53 6.78c-0.62,0.27 -1.05,0.61 -0.79,1.5 0.17,0.58 0.76,1 1.62,0.71 1.36,-0.47 0.67,-2.85 -0.83,-2.21z"/>
   <path class="fil2" d="M13.14 8.8c1.48,0.5 2.35,-0.02 2.12,-1.19 -0.06,-0.29 -0.08,-0.25 -0.2,-0.46 -0.02,-0.04 -0.08,-0.14 -0.1,-0.17l-0.1 -0.15c-1.73,-0.4 -2.19,0.46 -1.72,1.97z"/>
   <path class="fil2" d="M0.49 6.3c-0.01,-1.06 0.06,-2.17 0.07,-3.15 0,-1.1 0.08,-0.67 -0.35,-1.37 -0.61,-0.98 0.28,-1.64 1.33,-1.02 0.22,1.09 0.05,0.67 -0.27,1.3 -0.23,0.47 -0.18,2.45 -0.15,3.54 0.55,-0.47 1.26,-0.86 2.08,-1.12 -0.49,1.03 -0.76,2.17 -0.76,3.38 0,1.14 0.24,2.23 0.68,3.2 -1.85,-0.61 -3.12,-1.85 -3.12,-3.27 0,-0.53 0.17,-1.04 0.49,-1.49z"/>
  </g>
 </g>
</svg>
