<?xml version="1.0" encoding="UTF-8"?>
<!DOCTYPE svg PUBLIC "-//W3C//DTD SVG 1.1//EN" "http://www.w3.org/Graphics/SVG/1.1/DTD/svg11.dtd">
<!-- Creator: CorelDRAW -->
<svg xmlns="http://www.w3.org/2000/svg" xml:space="preserve" width="188px" height="39px" version="1.1" style="shape-rendering:geometricPrecision; text-rendering:geometricPrecision; image-rendering:optimizeQuality; fill-rule:evenodd; clip-rule:evenodd"
viewBox="0 0 23.48 4.89"
 xmlns:xlink="http://www.w3.org/1999/xlink"
 xmlns:xodm="http://www.corel.com/coreldraw/odm/2003">
 <defs>
  <style type="text/css">
   <![CDATA[
    .fil3 {fill:#0E8F75}
    .fil0 {fill:#0E8F75}
    .fil2 {fill:#1BBC9B}
    .fil1 {fill:white}
    .fil5 {fill:#1BBC9B;fill-rule:nonzero}
    .fil4 {fill:white;fill-rule:nonzero}
   ]]>
  </style>
 </defs>
 <g id="Camada_x0020_1">
  <metadata id="CorelCorpID_0Corel-Layer"/>
  <path class="fil0" d="M2.83 0.85c1.12,0 2.02,0.9 2.02,2.02 0,1.12 -0.9,2.02 -2.02,2.02 -1.12,0 -2.03,-0.9 -2.03,-2.02 0,-1.12 0.91,-2.02 2.03,-2.02z"/>
  <path class="fil1" d="M2.83 1.81c0.98,0 1.77,0.47 1.77,1.06 0,0.59 -0.79,1.07 -1.77,1.07 -0.98,0 -1.77,-0.48 -1.77,-1.07 0,-0.59 0.79,-1.06 1.77,-1.06z"/>
  <path class="fil2" d="M5.52 2.45c0,-0.27 -0.01,-0.55 -0.01,-0.81 -0.01,-0.28 -0.03,-0.17 0.08,-0.35 0.16,-0.25 -0.07,-0.42 -0.34,-0.26 -0.05,0.28 -0.01,0.17 0.07,0.33 0.06,0.12 0.05,0.63 0.04,0.91 -0.14,-0.12 -0.32,-0.22 -0.54,-0.28 0.13,0.26 0.2,0.55 0.2,0.87 0,0.29 -0.06,0.57 -0.18,0.82 0.48,-0.16 0.81,-0.48 0.81,-0.84 0,-0.14 -0.05,-0.27 -0.13,-0.39z"/>
  <path class="fil3" d="M1.94 2.59c-0.16,0.07 -0.27,0.16 -0.21,0.39 0.05,0.15 0.2,0.26 0.42,0.18 0.35,-0.12 0.17,-0.73 -0.21,-0.57z"/>
  <path class="fil2" d="M3.38 3.11c0.38,0.13 0.61,0 0.55,-0.3 -0.02,-0.08 -0.02,-0.07 -0.05,-0.12 -0.01,-0.01 -0.03,-0.04 -0.03,-0.05l-0.02 -0.04c-0.45,-0.1 -0.57,0.12 -0.45,0.51z"/>
  <path class="fil4" d="M7.29 0.23l-0.26 0.44 0.34 0 -0.08 -0.44zm-0.07 -0.23l0.25 0 0.25 1.14 -0.27 0 -0.05 -0.27 -0.49 0 -0.16 0.27 -0.26 0 0.73 -1.14zm1.71 0.67l0.04 -0.21 0.57 0 -0.15 0.68 -0.51 0c-0.1,0 -0.17,-0.01 -0.22,-0.02 -0.04,-0.02 -0.09,-0.04 -0.12,-0.08 -0.05,-0.05 -0.08,-0.11 -0.1,-0.18 -0.01,-0.08 -0.01,-0.17 0.02,-0.27 0.04,-0.2 0.11,-0.35 0.22,-0.45 0.11,-0.09 0.26,-0.14 0.44,-0.14l0.51 0 -0.04 0.2 -0.51 0c-0.1,0 -0.17,0.03 -0.23,0.09 -0.05,0.06 -0.1,0.16 -0.12,0.29 -0.03,0.12 -0.03,0.21 0,0.27 0.03,0.06 0.1,0.08 0.19,0.08l0.27 0 0.06 -0.26 -0.32 0zm1.94 -0.47c-0.08,0 -0.15,0.02 -0.21,0.06 -0.05,0.05 -0.09,0.11 -0.11,0.2l0.66 0 -0.04 0.2 -0.67 0c-0.02,0.1 -0.01,0.17 0.02,0.22 0.04,0.04 0.1,0.06 0.2,0.06l0.39 0 -0.04 0.2 -0.41 0c-0.09,0 -0.15,-0.01 -0.2,-0.02 -0.05,-0.02 -0.09,-0.04 -0.13,-0.08 -0.05,-0.05 -0.08,-0.11 -0.09,-0.18 -0.02,-0.08 -0.01,-0.17 0.01,-0.27 0.04,-0.2 0.12,-0.35 0.23,-0.45 0.1,-0.09 0.25,-0.14 0.43,-0.14l0.4 0 -0.04 0.2 -0.4 0zm1.26 -0.2l0.31 0 0.29 0.82 0.16 -0.82 0.25 0 -0.24 1.14 -0.28 0 -0.31 -0.86 -0.17 0.86 -0.25 0 0.24 -1.14zm2.06 0.2l-0.37 0 0.05 -0.2 0.98 0 -0.04 0.2 -0.37 0 -0.2 0.94 -0.25 0 0.2 -0.94zm1.82 0c-0.09,0 -0.16,0.02 -0.21,0.06 -0.05,0.05 -0.09,0.11 -0.11,0.2l0.66 0 -0.04 0.2 -0.67 0c-0.02,0.1 -0.01,0.17 0.02,0.22 0.03,0.04 0.1,0.06 0.19,0.06l0.4 0 -0.04 0.2 -0.41 0c-0.09,0 -0.16,-0.01 -0.2,-0.02 -0.05,-0.02 -0.1,-0.04 -0.13,-0.08 -0.05,-0.05 -0.08,-0.11 -0.1,-0.18 -0.01,-0.08 0,-0.17 0.02,-0.27 0.04,-0.2 0.12,-0.35 0.22,-0.45 0.11,-0.09 0.26,-0.14 0.44,-0.14l0.4 0 -0.04 0.2 -0.4 0z"/>
  <path class="fil5" d="M6.95 1.75l1.16 0c0.19,0 0.35,0.01 0.46,0.03 0.11,0.02 0.2,0.05 0.26,0.09 0.1,0.08 0.17,0.17 0.21,0.29 0.04,0.12 0.04,0.26 0.01,0.41 -0.02,0.16 -0.07,0.29 -0.14,0.39 -0.07,0.11 -0.16,0.2 -0.27,0.27 -0.09,0.06 -0.19,0.1 -0.31,0.13 -0.11,0.02 -0.28,0.04 -0.5,0.04l-0.64 0 -0.16 0.88 -0.54 0 0.46 -2.53zm1.07 0.45l-0.62 0 -0.13 0.75 0.65 0c0.16,0 0.28,-0.03 0.37,-0.09 0.09,-0.07 0.15,-0.16 0.17,-0.29 0.03,-0.13 0,-0.23 -0.06,-0.29 -0.07,-0.05 -0.19,-0.08 -0.38,-0.08zm1.81 2.08c-0.31,0 -0.52,-0.08 -0.65,-0.23 -0.13,-0.16 -0.17,-0.39 -0.12,-0.7 0.06,-0.3 0.18,-0.53 0.37,-0.69 0.18,-0.16 0.43,-0.24 0.74,-0.24l0.71 0 -0.07 0.39 -0.65 0c-0.17,0 -0.3,0.03 -0.37,0.08 -0.07,0.05 -0.12,0.14 -0.15,0.27l1.11 0 -0.07 0.39 -1.11 0c-0.02,0.13 0,0.22 0.05,0.27 0.04,0.05 0.16,0.07 0.35,0.07l0.65 0 -0.07 0.39 -0.72 0zm1.18 -1.86l0.35 0 0.12 -0.67 0.49 0 -0.12 0.67 0.52 0 -0.07 0.37 -0.52 0 -0.13 0.75c-0.03,0.14 -0.02,0.24 0.02,0.29 0.03,0.05 0.11,0.08 0.23,0.08l0.2 0 -0.07 0.37 -0.44 0c-0.19,0 -0.32,-0.05 -0.39,-0.15 -0.08,-0.1 -0.1,-0.24 -0.07,-0.43l0.16 -0.91 -0.34 0 0.06 -0.37zm1.65 0l0.82 0c0.2,0 0.33,0.04 0.39,0.11 0.07,0.07 0.08,0.19 0.05,0.36l-0.05 0.31 -0.47 0 0.04 -0.24c0.01,-0.07 0.01,-0.12 -0.01,-0.14 -0.02,-0.03 -0.08,-0.04 -0.17,-0.04l-0.17 0 -0.28 1.5 -0.49 0 0.34 -1.86zm1.88 0.93c-0.03,0.18 -0.01,0.32 0.05,0.42 0.07,0.1 0.17,0.14 0.32,0.14 0.15,0 0.27,-0.04 0.37,-0.14 0.11,-0.1 0.17,-0.24 0.2,-0.42 0.04,-0.17 0.02,-0.31 -0.05,-0.41 -0.06,-0.1 -0.17,-0.15 -0.32,-0.15 -0.14,0 -0.27,0.05 -0.37,0.15 -0.1,0.1 -0.17,0.24 -0.2,0.41zm1.46 0c-0.05,0.3 -0.18,0.53 -0.39,0.7 -0.21,0.18 -0.47,0.26 -0.77,0.26 -0.3,0 -0.52,-0.08 -0.67,-0.26 -0.15,-0.17 -0.2,-0.41 -0.14,-0.7 0.05,-0.29 0.18,-0.52 0.39,-0.7 0.21,-0.17 0.47,-0.26 0.77,-0.26 0.3,0 0.52,0.09 0.67,0.26 0.14,0.18 0.19,0.41 0.14,0.7zm0.47 -0.93l0.92 0c0.28,0 0.47,0.05 0.57,0.16 0.1,0.1 0.13,0.28 0.09,0.52l-0.22 1.18 -0.49 0 0.2 -1.12c0.03,-0.14 0.02,-0.23 -0.01,-0.27 -0.04,-0.04 -0.12,-0.06 -0.25,-0.06l-0.4 0 -0.26 1.45 -0.49 0 0.34 -1.86zm2.61 1.86c-0.31,0 -0.53,-0.08 -0.66,-0.23 -0.13,-0.16 -0.16,-0.39 -0.11,-0.7 0.06,-0.3 0.18,-0.53 0.36,-0.69 0.19,-0.16 0.44,-0.24 0.74,-0.24l0.72 0 -0.07 0.39 -0.65 0c-0.18,0 -0.3,0.03 -0.37,0.08 -0.07,0.05 -0.12,0.14 -0.15,0.27l1.11 0 -0.07 0.39 -1.11 0c-0.02,0.13 -0.01,0.22 0.04,0.27 0.05,0.05 0.17,0.07 0.35,0.07l0.66 0 -0.07 0.39 -0.72 0zm2.12 -0.4l0.52 0 -0.07 0.4 -0.67 0c-0.17,0 -0.31,-0.02 -0.41,-0.05 -0.1,-0.04 -0.18,-0.09 -0.25,-0.17 -0.07,-0.09 -0.12,-0.19 -0.15,-0.31 -0.02,-0.12 -0.02,-0.25 0,-0.39 0.03,-0.14 0.07,-0.28 0.14,-0.4 0.08,-0.13 0.16,-0.23 0.26,-0.32 0.1,-0.07 0.21,-0.13 0.32,-0.17 0.12,-0.03 0.26,-0.05 0.42,-0.05l0.67 0 -0.07 0.4 -0.52 0c-0.23,0 -0.4,0.04 -0.5,0.12 -0.1,0.08 -0.17,0.22 -0.21,0.42 -0.02,0.11 -0.02,0.21 0,0.28 0.03,0.08 0.07,0.14 0.14,0.18 0.03,0.02 0.07,0.04 0.12,0.05 0.04,0.01 0.13,0.01 0.26,0.01zm0.92 -1.46l0.35 0 0.12 -0.67 0.49 0 -0.12 0.67 0.52 0 -0.07 0.37 -0.52 0 -0.13 0.75c-0.03,0.14 -0.02,0.24 0.01,0.29 0.04,0.05 0.12,0.08 0.24,0.08l0.2 0 -0.07 0.37 -0.45 0c-0.18,0 -0.31,-0.05 -0.39,-0.15 -0.07,-0.1 -0.1,-0.24 -0.06,-0.43l0.16 -0.91 -0.35 0 0.07 -0.37z"/>
  <path class="fil2" d="M0.13 2.47c-0.01,-0.27 0.01,-0.56 0.01,-0.81 0,-0.28 0.02,-0.17 -0.09,-0.35 -0.15,-0.26 0.07,-0.43 0.35,-0.27 0.05,0.28 0.01,0.18 -0.07,0.34 -0.06,0.12 -0.05,0.63 -0.04,0.91 0.14,-0.12 0.32,-0.22 0.53,-0.29 -0.12,0.26 -0.19,0.56 -0.19,0.87 0,0.29 0.06,0.57 0.17,0.82 -0.47,-0.15 -0.8,-0.47 -0.8,-0.84 0,-0.14 0.04,-0.26 0.13,-0.38z"/>
 </g>
</svg>
